#!OML:ASF H:\Terrain\Patient Classification 1\Animal1\Tuesday\Animal1.ASF
:FULLY-SPECIFIED
:DEGREES
3210
root 10.1138 15.5606 -2.09616 13.919 43.3745 -0.302994
lowerback 13.2229 1.38652 -1.92271
upperback -4.11966 1.36951 -1.38252
thorax -11.9815 0.729339 -0.746933
lowerneck -9.59198 7.15052 1.29926
upperneck 6.01856 9.13392 3.47354
head 3.54359 4.71685 1.46644
rclavicle -6.94752e-014 -3.97569e-015
rhumerus 6.90141 53.0004 -50.7126
rradius 71.517
rwrist 4.64053
rhand -30.7879 -1042.66
rfingers 7.12502
rthumb -4.07829 7.40063
lclavicle -6.94752e-014 -3.97569e-015
lhumerus -4.319 -1.49038 69.9176
lradius 67.5137
lwrist -55.5235
lhand -18.7336 56.4839
lfingers 7.12502
lthumb 7.56231 1886.33
rfemur -42.8819 3.41166 21.335
rtibia 57.843
rfoot -21.528 -17.6201
rtoes 8.00663
lfemur -51.1263 -9.45239 -2.40684
ltibia 39.4715
lfoot -3.2711 0.846367
ltoes -5.74681
3211
root 10.1682 15.5576 -2.09573 14.1233 43.8355 -0.424727
lowerback 13.1542 1.23597 -1.80667
upperback -4.11873 1.19886 -1.30073
thorax -11.9369 0.643859 -0.681015
lowerneck -9.71112 7.18467 1.23958
upperneck 5.83988 9.19603 3.36657
head 3.50525 4.7404 1.4444
rclavicle 1.26029e-013 2.78299e-015
rhumerus 6.6751 52.6678 -50.9796
rradius 71.4901
rwrist 4.52215
rhand -31.1573 -1042.91
rfingers 7.12502
rthumb -4.43501 7.15751
lclavicle 1.26029e-013 2.78299e-015
lhumerus -4.79047 -1.63053 69.6101
lradius 68.3394
lwrist -55.1194
lhand -18.9223 56.6942
lfingers 7.12502
lthumb 7.38015 1886.55
rfemur -42.8554 3.24447 21.3188
rtibia 57.6867
rfoot -22.2507 -17.835
rtoes 9.26741
lfemur -51.7247 -9.46566 -2.4932
ltibia 39.8912
lfoot -3.39481 0.434966
ltoes -2.98797
3212
root 10.222 15.5566 -2.09549 14.2648 44.2043 -0.442753
lowerback 13.1491 1.07184 -1.8844
upperback -4.05793 0.9801 -1.16292
thorax -11.8674 0.552026 -0.433907
lowerneck -9.59406 7.18249 1.36177
upperneck 5.478 9.21732 2.94704
head 3.38267 4.73144 1.27015
rclavicle -9.93923e-017 -2.22639e-014
rhumerus 6.39312 52.3985 -51.4176
rradius 71.5848
rwrist 4.48607
rhand -30.8274 -1042.74
rfingers 7.12502
rthumb -4.11645 7.31579
lclavicle -9.93923e-017 -2.22639e-014
lhumerus -4.82134 -1.39311 69.6243
lradius 68.5515
lwrist -55.0637
lhand -18.8103 56.4635
lfingers 7.12502
lthumb 7.48827 1886.31
rfemur -42.6516 3.19047 21.1949
rtibia 57.4698
rfoot -23.0085 -18.1246
rtoes 11.1557
lfemur -52.1189 -9.68391 -2.58506
ltibia 40.292
lfoot -3.5035 0.254139
ltoes -2.17871
3213
root 10.2686 15.5578 -2.10083 14.4796 44.5575 -0.489207
lowerback 13.168 0.653214 -2.13689
upperback -3.95126 0.421949 -0.710861
thorax -11.758 0.325506 0.333801
lowerneck -10.1211 7.44068 0.662371
upperneck 5.45884 9.64813 2.85557
head 3.43982 4.92626 1.40707
rclavicle -4.95968e-014 1.74931e-014
rhumerus 7.83972 52.9742 -50.2569
rradius 71.8058
rwrist 4.37773
rhand -30.8615 -1043.17
rfingers 7.12502
rthumb -4.14938 6.88632
lclavicle -4.95968e-014 1.74931e-014
lhumerus -4.9337 0.17216 69.8879
lradius 68.5365
lwrist -55.2966
lhand -18.5973 55.8954
lfingers 7.12502
lthumb 7.69387 1885.74
rfemur -42.5919 3.18402 21.0617
rtibia 57.2361
rfoot -23.6936 -17.9676
rtoes 14.1715
lfemur -52.638 -9.80692 -2.65626
ltibia 40.6543
lfoot -3.54065 0.0241943
ltoes -1.80611
3214
root 10.3123 15.5634 -2.10524 14.5489 44.9615 -0.680275
lowerback 13.1746 0.880189 -1.86245
upperback -4.01352 0.754418 -0.901353
thorax -11.833 0.45495 -0.107463
lowerneck -9.48153 7.08085 1.37997
upperneck 4.94544 9.11633 2.58946
head 3.19543 4.6626 1.12174
rclavicle 1.05753e-013 7.95139e-016
rhumerus 6.2643 51.8356 -51.2381
rradius 71.9156
rwrist 4.40545
rhand -31.023 -1043.53
rfingers 7.12502
rthumb -4.30533 6.53075
lclavicle 1.05753e-013 7.95139e-016
lhumerus -4.44042 -0.878019 70.2418
lradius 68.4383
lwrist -55.3487
lhand -18.5344 55.8386
lfingers 7.12502
lthumb 7.75458 1885.68
rfemur -42.4731 3.18504 21.051
rtibia 56.9674
rfoot -23.9452 -17.9881
rtoes 15.8691
lfemur -53.0743 -9.79663 -2.6457
ltibia 40.9522
lfoot -3.541 -0.491095
ltoes 3.58277
3215
root 10.3528 15.5746 -2.10913 14.6642 45.254 -0.66241
lowerback 13.1956 0.852226 -1.98064
upperback -3.89626 0.708716 -0.788526
thorax -11.7153 0.445742 0.0947195
lowerneck -9.6755 7.06703 1.09699
upperneck 4.99718 9.11458 2.79707
head 3.22596 4.66602 1.24622
rclavicle 9.24349e-014 -1.47101e-014
rhumerus 6.39658 51.2968 -51.0097
rradius 71.8351
rwrist 4.50923
rhand -31.0394 -1042.79
rfingers 7.12502
rthumb -4.32116 7.27695
lclavicle 9.24349e-014 -1.47101e-014
lhumerus -4.47188 -1.10824 70.3527
lradius 68.7398
lwrist -54.9987
lhand -18.3475 56.2275
lfingers 7.12502
lthumb 7.93497 1886.06
rfemur -42.3021 3.31734 20.8127
rtibia 56.6686
rfoot -24.3681 -17.7277
rtoes 18.4866
lfemur -53.3459 -9.74494 -2.8715
ltibia 41.1604
lfoot -3.51691 -0.923357
ltoes 5.05705
3216
root 10.3903 15.5887 -2.11306 14.8285 45.5025 -0.689909
lowerback 13.1877 0.865447 -1.94864
upperback -3.82626 0.737237 -0.750875
thorax -11.6318 0.457732 0.112349
lowerneck -9.90671 7.01485 0.827169
upperneck 5.02624 9.06282 2.97173
head 3.25915 4.64367 1.3567
rclavicle 3.598e-014 7.95139e-016
rhumerus 6.13578 50.7902 -51.0131
rradius 71.9476
rwrist 4.59557
rhand -31.1441 -1042.48
rfingers 7.12502
rthumb -4.42231 7.58448
lclavicle 3.598e-014 7.95139e-016
lhumerus -4.36794 -1.36834 70.6125
lradius 68.9231
lwrist -55.0249
lhand -17.7802 56.8429
lfingers 7.12502
lthumb 8.4825 1886.65
rfemur -42.1969 3.53457 20.5932
rtibia 56.2948
rfoot -25.1863 -17.1427
rtoes 22.1674
lfemur -53.653 -9.67943 -3.04703
ltibia 41.3064
lfoot -3.56353 -1.18985
ltoes 3.59179
3217
root 10.428 15.6018 -2.11813 14.7698 45.7732 -1.04272
lowerback 13.1403 0.928246 -1.53367
upperback -3.77833 0.894872 -0.767762
thorax -11.5438 0.501359 -0.175098
lowerneck -9.98691 6.87284 0.809713
upperneck 5.01465 8.86902 3.05322
head 3.26882 4.55138 1.37866
rclavicle -1.20265e-014 4.77083e-015
rhumerus 5.79622 50.2173 -51.0467
rradius 72.0201
rwrist 4.47513
rhand -31.0262 -1042.6
rfingers 7.12502
rthumb -4.30845 7.46613
lclavicle -1.20265e-014 4.77083e-015
lhumerus -3.84517 -1.60276 71.1082
lradius 68.7082
lwrist -55.4108
lhand -17.8268 57.0928
lfingers 7.12502
lthumb 8.43752 1886.9
rfemur -42.0395 3.64838 20.6987
rtibia 55.846
rfoot -25.8475 -16.8469
rtoes 24.7275
lfemur -53.8787 -9.64552 -2.91217
ltibia 41.4001
lfoot -3.66286 -1.43945
ltoes 5.77314
3218
root 10.469 15.6057 -2.12254 14.5366 45.8361 -1.52009
lowerback 13.2032 0.877675 -1.23263
upperback -3.71774 0.90049 -0.568339
thorax -11.5105 0.490673 -0.129104
lowerneck -10.0043 6.92314 0.577647
upperneck 4.86373 8.97298 2.99622
head 3.20936 4.59505 1.39986
rclavicle -4.74101e-014 -1.11319e-014
rhumerus 6.36702 50.2339 -50.4911
rradius 71.8748
rwrist 4.48125
rhand -31.3241 -1042.3
rfingers 7.12502
rthumb -4.59609 7.77025
lclavicle -4.74101e-014 -1.11319e-014
lhumerus -3.56652 -1.174 71.4352
lradius 68.4407
lwrist -55.1974
lhand -18.5472 56.666
lfingers 7.12502
lthumb 7.74218 1886.5
rfemur -41.7634 3.6523 20.9704
rtibia 55.3628
rfoot -25.7636 -17.2953
rtoes 23.4127
lfemur -53.9028 -9.53497 -2.73679
ltibia 41.4216
lfoot -3.87816 -1.57572
ltoes 5.02697
3219
root 10.5092 15.6009 -2.12267 14.5349 45.6615 -1.80949
lowerback 13.2219 1.10562 -1.07631
upperback -3.8645 1.22755 -0.6236
thorax -11.6856 0.632615 -0.355832
lowerneck -9.58974 6.8001 0.685141
upperneck 4.81693 8.79747 3.08632
head 3.1176 4.51215 1.37933
rclavicle 5.56597e-015 5.96354e-015
rhumerus 5.4239 49.8454 -51.2352
rradius 71.6538
rwrist 4.90985
rhand -31.597 -1042.5
rfingers 7.12502
rthumb -4.85958 7.57109
lclavicle 5.56597e-015 5.96354e-015
lhumerus -3.48953 -1.79772 71.5777
lradius 68.3476
lwrist -54.7834
lhand -18.4099 56.8996
lfingers 7.12502
lthumb 7.87471 1886.73
rfemur -41.6126 3.76281 21.1212
rtibia 54.8868
rfoot -24.8502 -18.8772
rtoes 16.9724
lfemur -53.8995 -9.26759 -2.70644
ltibia 41.3588
lfoot -4.31309 -1.46942
ltoes 2.42117
3220
root 10.5442 15.6032 -2.12027 14.8075 45.4259 -1.82062
lowerback 12.9263 1.24239 -1.24768
upperback -3.86291 1.38647 -0.624095
thorax -11.5127 0.720985 -0.289242
lowerneck -9.83347 6.75032 0.219772
upperneck 5.10948 8.74731 3.58895
head 3.22162 4.50237 1.63943
rclavicle 1.01678e-013 -3.33958e-014
rhumerus 5.31776 49.6184 -51.4669
rradius 71.368
rwrist 5.05305
rhand -31.3428 -1043.06
rfingers 7.12502
rthumb -4.61413 7.0062
lclavicle 1.01678e-013 -3.33958e-014
lhumerus -3.41681 -2.07099 71.6044
lradius 68.4307
lwrist -54.9978
lhand -17.7099 57.3779
lfingers 7.12502
lthumb 8.55026 1887.18
rfemur -41.6072 4.08411 20.9848
rtibia 54.4437
rfoot -24.0451 -20.2546
rtoes 11.8459
lfemur -53.839 -8.90739 -2.92988
ltibia 41.2049
lfoot -4.91042 -1.19805
ltoes -1.64594
3221
root 10.5783 15.6171 -2.12225 14.9983 45.2023 -1.88503
lowerback 12.552 1.505 -1.06874
upperback -3.79394 1.75002 -0.884438
thorax -11.2001 0.87123 -0.742578
lowerneck -9.42811 6.50123 0.508527
upperneck 4.54443 8.39793 3.63414
head 2.96765 4.33225 1.54675
rclavicle -7.35503e-015 1.63003e-014
rhumerus 4.59593 48.863 -52.1591
rradius 71.1975
rwrist 4.9607
rhand -31.3287 -1043.1
rfingers 7.12502
rthumb -4.60057 6.9699
lclavicle -7.35503e-015 1.63003e-014
lhumerus -2.56533 -2.80986 71.6705
lradius 67.9115
lwrist -55.446
lhand -17.3009 57.4146
lfingers 7.12502
lthumb 8.94496 1887.21
rfemur -41.5749 4.3493 20.8549
rtibia 54.0378
rfoot -23.8183 -20.6692
rtoes 10.4405
lfemur -53.6991 -8.63515 -3.11413
ltibia 40.9566
lfoot -5.45792 -0.829827
ltoes -8.3083
3222
root 10.6092 15.637 -2.12911 15.144 44.9707 -2.0756
lowerback 12.436 1.64007 -1.05872
upperback -3.89894 1.93175 -0.916607
thorax -11.2474 0.956149 -0.822163
lowerneck -9.75333 6.58736 0.435995
upperneck 5.18343 8.47497 4.01826
head 3.22906 4.39192 1.72703
rclavicle -4.60187e-014 -9.14409e-015
rhumerus 4.09907 48.681 -52.6951
rradius 71.1136
rwrist 4.89595
rhand -31.2711 -1043.06
rfingers 7.12502
rthumb -4.54491 7.01209
lclavicle -4.60187e-014 -9.14409e-015
lhumerus -2.41452 -2.89525 71.7867
lradius 67.6149
lwrist -55.6363
lhand -17.747 57.3301
lfingers 7.12502
lthumb 8.51449 1887.14
rfemur -41.6128 4.58047 20.8438
rtibia 53.6417
rfoot -23.4332 -21.0756
rtoes 9.02683
lfemur -53.6537 -8.49614 -3.01982
ltibia 40.6381
lfoot -5.74947 -0.55754
ltoes -9.37516
